<?xml version="1.0" encoding="UTF-8"?>
<!DOCTYPE svg PUBLIC "-//W3C//DTD SVG 1.0//EN" "http://www.w3.org/TR/2001/REC-SVG-20010904/DTD/svg10.dtd">
<!-- Creator: CorelDRAW X6 -->
<svg xmlns="http://www.w3.org/2000/svg" xml:space="preserve" width="23.7991mm" height="8.2714mm" version="1.0" style="shape-rendering:geometricPrecision; text-rendering:geometricPrecision; image-rendering:optimizeQuality; fill-rule:evenodd; clip-rule:evenodd"
viewBox="0 0 1463 508"
 xmlns:xlink="http://www.w3.org/1999/xlink">
 <defs>
  <style type="text/css">
   <![CDATA[
    .fil0 {fill:#E95044}
   ]]>
  </style>
 </defs>
 <g id="Layer_x0020_1">
  <metadata id="CorelCorpID_0Corel-Layer"/>
  <g id="_1196488144">
   <path class="fil0" d="M254 0c140,0 254,114 254,254 0,140 -114,254 -254,254 -140,0 -254,-114 -254,-254 0,-140 114,-254 254,-254zm101 385l-217 0 132 -210 -119 0 0 -52 220 0 -134 213 118 0 0 49z"/>
   <path class="fil0" d="M1386 193l-48 5 0 218 51 -3 0 -103c0,-37 17,-61 56,-61l18 -57c-35,0 -58,7 -75,41l-1 0 0 -39zm-135 224l51 -3 0 -220 -51 5 0 218zm-220 0l51 -3 0 -122c0,-27 15,-53 47,-53 23,0 33,19 33,42l0 137 51 -3 0 -148c0,-46 -28,-74 -70,-74 -28,0 -45,7 -59,27l-1 0 0 -102 -51 7 0 294zm-188 -168c18,-8 37,-13 57,-13 24,0 43,6 43,35 0,5 -1,10 -1,14 -20,-11 -34,-14 -56,-14 -38,0 -69,34 -69,73 0,49 33,76 77,76 19,0 37,-8 51,-20l0 19 46 -5 0 -161c0,-44 -40,-61 -76,-61 -20,0 -39,2 -59,6l-14 52zm26 95l0 0c0,-19 19,-31 37,-31 18,0 37,12 37,31 0,19 -19,31 -37,31 -18,0 -37,-11 -37,-31zm-267 -168l117 0 -129 237 204 0 12 -54 -131 0 131 -237 -191 0 -12 54zm632 -44c0,-12 5,-23 12,-31 8,-8 18,-13 30,-13 12,0 22,5 30,13 7,8 12,19 12,31 0,12 -5,23 -12,31 -8,8 -18,13 -30,13 -12,0 -22,-5 -30,-13 -7,-8 -12,-19 -12,-31zm19 -24c-6,6 -9,15 -9,24 0,10 4,18 9,24 6,6 14,10 23,10 9,0 17,-4 23,-10 6,-6 9,-15 9,-24 0,-10 -4,-18 -9,-24 -6,-6 -14,-10 -23,-10 -9,0 -17,4 -23,10z"/>
  </g>
 </g>
</svg>
