<svg width="450" height="52" viewBox="0 0 450 52" fill="none" xmlns="http://www.w3.org/2000/svg">
<rect x="0.5" y="0.5" width="449" height="51" rx="4.5" fill="#F5F7F8" stroke="#D1D8E0"/>
<path d="M24.176 22.132C23.8773 21.7307 23.5087 21.432 23.07 21.236C22.6313 21.0307 22.174 20.928 21.698 20.928C21.1473 20.928 20.6387 21.04 20.172 21.264C19.7147 21.488 19.318 21.7913 18.982 22.174C18.646 22.5473 18.3847 22.986 18.198 23.49C18.0113 23.9847 17.918 24.5027 17.918 25.044C17.918 25.6227 18.0113 26.164 18.198 26.668C18.3847 27.1627 18.6413 27.5967 18.968 27.97C19.304 28.334 19.7007 28.6233 20.158 28.838C20.6247 29.0527 21.138 29.16 21.698 29.16C22.3047 29.16 22.846 29.0433 23.322 28.81C23.798 28.5673 24.2133 28.222 24.568 27.774L25.45 28.516C25.002 29.1133 24.4607 29.552 23.826 29.832C23.2007 30.112 22.4913 30.252 21.698 30.252C20.9887 30.252 20.326 30.1213 19.71 29.86C19.094 29.5987 18.5573 29.2393 18.1 28.782C17.652 28.3153 17.2973 27.7647 17.036 27.13C16.784 26.4953 16.658 25.8 16.658 25.044C16.658 24.316 16.7793 23.6347 17.022 23C17.274 22.3653 17.624 21.8147 18.072 21.348C18.52 20.8813 19.052 20.5127 19.668 20.242C20.284 19.9713 20.9607 19.836 21.698 19.836C22.37 19.836 23.014 19.9573 23.63 20.2C24.2553 20.4427 24.778 20.8393 25.198 21.39L24.176 22.132ZM26.5154 26.724C26.5154 26.2107 26.6041 25.744 26.7814 25.324C26.9588 24.904 27.2014 24.5447 27.5094 24.246C27.8174 23.938 28.1861 23.7 28.6154 23.532C29.0448 23.364 29.5114 23.28 30.0154 23.28C30.5194 23.28 30.9861 23.364 31.4154 23.532C31.8448 23.7 32.2134 23.938 32.5214 24.246C32.8294 24.5447 33.0721 24.904 33.2494 25.324C33.4268 25.744 33.5154 26.2107 33.5154 26.724C33.5154 27.2373 33.4268 27.704 33.2494 28.124C33.0721 28.544 32.8294 28.908 32.5214 29.216C32.2134 29.5147 31.8448 29.748 31.4154 29.916C30.9861 30.084 30.5194 30.168 30.0154 30.168C29.5114 30.168 29.0448 30.084 28.6154 29.916C28.1861 29.748 27.8174 29.5147 27.5094 29.216C27.2014 28.908 26.9588 28.544 26.7814 28.124C26.6041 27.704 26.5154 27.2373 26.5154 26.724ZM27.6914 26.724C27.6914 27.0693 27.7428 27.3913 27.8454 27.69C27.9574 27.9793 28.1161 28.236 28.3214 28.46C28.5268 28.6747 28.7694 28.8473 29.0494 28.978C29.3388 29.0993 29.6608 29.16 30.0154 29.16C30.3701 29.16 30.6874 29.0993 30.9674 28.978C31.2568 28.8473 31.5041 28.6747 31.7094 28.46C31.9148 28.236 32.0688 27.9793 32.1714 27.69C32.2834 27.3913 32.3394 27.0693 32.3394 26.724C32.3394 26.3787 32.2834 26.0613 32.1714 25.772C32.0688 25.4733 31.9148 25.2167 31.7094 25.002C31.5041 24.778 31.2568 24.6053 30.9674 24.484C30.6874 24.3533 30.3701 24.288 30.0154 24.288C29.6608 24.288 29.3388 24.3533 29.0494 24.484C28.7694 24.6053 28.5268 24.778 28.3214 25.002C28.1161 25.2167 27.9574 25.4733 27.8454 25.772C27.7428 26.0613 27.6914 26.3787 27.6914 26.724ZM35.2059 25.002C35.2059 24.7033 35.1966 24.4233 35.1779 24.162C35.1593 23.9007 35.1499 23.6627 35.1499 23.448H36.1859C36.1859 23.6253 36.1906 23.8027 36.1999 23.98C36.2093 24.1573 36.2139 24.3393 36.2139 24.526H36.2419C36.3166 24.3673 36.4193 24.2133 36.5499 24.064C36.6899 23.9147 36.8533 23.784 37.0399 23.672C37.2266 23.5507 37.4366 23.4573 37.6699 23.392C37.9033 23.3173 38.1553 23.28 38.4259 23.28C38.7806 23.28 39.0746 23.3267 39.3079 23.42C39.5506 23.504 39.7513 23.6113 39.9099 23.742C40.0686 23.8633 40.1899 23.9987 40.2739 24.148C40.3673 24.288 40.4419 24.414 40.4979 24.526C40.7406 24.134 41.0206 23.8307 41.3379 23.616C41.6553 23.392 42.0659 23.28 42.5699 23.28C43.0366 23.28 43.4286 23.3453 43.7459 23.476C44.0633 23.5973 44.3199 23.7793 44.5159 24.022C44.7119 24.2553 44.8519 24.5447 44.9359 24.89C45.0199 25.226 45.0619 25.604 45.0619 26.024V30H43.9699V26.08C43.9699 25.856 43.9466 25.6367 43.8999 25.422C43.8533 25.2073 43.7693 25.016 43.6479 24.848C43.5266 24.68 43.3633 24.5447 43.1579 24.442C42.9526 24.3393 42.6913 24.288 42.3739 24.288C42.1406 24.288 41.9213 24.3347 41.7159 24.428C41.5106 24.5213 41.3286 24.652 41.1699 24.82C41.0206 24.988 40.8993 25.1933 40.8059 25.436C40.7219 25.6693 40.6799 25.9307 40.6799 26.22V30H39.5879V26.29C39.5879 25.562 39.4899 25.0487 39.2939 24.75C39.0979 24.442 38.7759 24.288 38.3279 24.288C37.9733 24.288 37.6653 24.3487 37.4039 24.47C37.1519 24.5913 36.9419 24.764 36.7739 24.988C36.6153 25.212 36.4939 25.478 36.4099 25.786C36.3353 26.094 36.2979 26.4347 36.2979 26.808V30H35.2059V25.002ZM47.0718 23.448H48.1638V24.4H48.1918C48.4905 24.0453 48.8358 23.77 49.2278 23.574C49.6291 23.378 50.0678 23.28 50.5438 23.28C51.0571 23.28 51.5238 23.3687 51.9438 23.546C52.3731 23.714 52.7371 23.952 53.0358 24.26C53.3345 24.568 53.5678 24.932 53.7358 25.352C53.9038 25.772 53.9878 26.2293 53.9878 26.724C53.9878 27.2187 53.9038 27.676 53.7358 28.096C53.5678 28.516 53.3345 28.88 53.0358 29.188C52.7465 29.496 52.4011 29.7387 51.9998 29.916C51.5985 30.084 51.1691 30.168 50.7118 30.168C50.1238 30.168 49.6058 30.042 49.1578 29.79C48.7191 29.5287 48.3971 29.2113 48.1918 28.838H48.1638V33.192H47.0718V23.448ZM48.1638 26.724C48.1638 27.0693 48.2151 27.3913 48.3178 27.69C48.4298 27.9793 48.5885 28.236 48.7938 28.46C48.9991 28.6747 49.2418 28.8473 49.5218 28.978C49.8111 29.0993 50.1331 29.16 50.4878 29.16C50.8425 29.16 51.1598 29.0993 51.4398 28.978C51.7291 28.8473 51.9765 28.6747 52.1818 28.46C52.3871 28.236 52.5411 27.9793 52.6438 27.69C52.7558 27.3913 52.8118 27.0693 52.8118 26.724C52.8118 26.3787 52.7558 26.0613 52.6438 25.772C52.5411 25.4733 52.3871 25.2167 52.1818 25.002C51.9765 24.778 51.7291 24.6053 51.4398 24.484C51.1598 24.3533 50.8425 24.288 50.4878 24.288C50.1331 24.288 49.8111 24.3533 49.5218 24.484C49.2418 24.6053 48.9991 24.778 48.7938 25.002C48.5885 25.2167 48.4298 25.4733 48.3178 25.772C48.2151 26.0613 48.1638 26.3787 48.1638 26.724ZM55.6024 24.288C55.9384 23.9427 56.3351 23.6907 56.7924 23.532C57.2591 23.364 57.7304 23.28 58.2064 23.28C59.1771 23.28 59.8771 23.5087 60.3064 23.966C60.7357 24.4233 60.9504 25.1187 60.9504 26.052V28.866C60.9504 29.0527 60.9597 29.2487 60.9784 29.454C60.9971 29.65 61.0204 29.832 61.0484 30H59.9984C59.9611 29.8507 59.9377 29.6873 59.9284 29.51C59.9284 29.3233 59.9284 29.16 59.9284 29.02H59.9004C59.6857 29.356 59.3964 29.6313 59.0324 29.846C58.6777 30.0607 58.2484 30.168 57.7444 30.168C57.4084 30.168 57.0911 30.126 56.7924 30.042C56.5031 29.958 56.2464 29.8367 56.0224 29.678C55.8077 29.51 55.6351 29.3047 55.5044 29.062C55.3737 28.8193 55.3084 28.5393 55.3084 28.222C55.3084 27.6807 55.4484 27.256 55.7284 26.948C56.0084 26.64 56.3537 26.4113 56.7644 26.262C57.1844 26.1127 57.6324 26.0193 58.1084 25.982C58.5937 25.9447 59.0371 25.926 59.4384 25.926H59.8584V25.73C59.8584 25.254 59.7137 24.8947 59.4244 24.652C59.1444 24.4093 58.7477 24.288 58.2344 24.288C57.8797 24.288 57.5297 24.3487 57.1844 24.47C56.8484 24.582 56.5497 24.7593 56.2884 25.002L55.6024 24.288ZM58.7664 26.85C58.0664 26.85 57.5111 26.948 57.1004 27.144C56.6897 27.34 56.4844 27.662 56.4844 28.11C56.4844 28.5207 56.6197 28.8147 56.8904 28.992C57.1704 29.16 57.5157 29.244 57.9264 29.244C58.2437 29.244 58.5191 29.1927 58.7524 29.09C58.9951 28.978 59.1957 28.8333 59.3544 28.656C59.5131 28.4787 59.6344 28.2733 59.7184 28.04C59.8024 27.7973 59.8491 27.5407 59.8584 27.27V26.85H58.7664ZM62.9462 25.002C62.9462 24.7033 62.9368 24.4233 62.9182 24.162C62.8995 23.9007 62.8902 23.6627 62.8902 23.448H63.9262C63.9262 23.6253 63.9308 23.8027 63.9402 23.98C63.9495 24.1573 63.9542 24.3393 63.9542 24.526H63.9822C64.0568 24.3673 64.1595 24.2133 64.2902 24.064C64.4302 23.9147 64.5935 23.784 64.7802 23.672C64.9668 23.5507 65.1768 23.4573 65.4102 23.392C65.6435 23.3173 65.8955 23.28 66.1662 23.28C66.5955 23.28 66.9642 23.3453 67.2722 23.476C67.5895 23.6067 67.8508 23.7887 68.0562 24.022C68.2615 24.2553 68.4108 24.54 68.5042 24.876C68.6068 25.2027 68.6582 25.562 68.6582 25.954V30H67.5662V26.066C67.5662 25.5153 67.4448 25.0813 67.2022 24.764C66.9595 24.4467 66.5815 24.288 66.0682 24.288C65.7135 24.288 65.4055 24.3487 65.1442 24.47C64.8922 24.5913 64.6822 24.764 64.5142 24.988C64.3555 25.212 64.2342 25.478 64.1502 25.786C64.0755 26.094 64.0382 26.4347 64.0382 26.808V30H62.9462V25.002ZM73.1335 31.498C73.0215 31.778 72.9048 32.03 72.7835 32.254C72.6715 32.4873 72.5315 32.6833 72.3635 32.842C72.2048 33.01 72.0088 33.136 71.7755 33.22C71.5515 33.3133 71.2761 33.36 70.9495 33.36C70.7908 33.36 70.6228 33.3507 70.4455 33.332C70.2775 33.3133 70.1188 33.2667 69.9695 33.192L70.1095 32.24C70.2215 32.2867 70.3381 32.3147 70.4595 32.324C70.5808 32.3427 70.7208 32.352 70.8795 32.352C71.2341 32.352 71.4955 32.254 71.6635 32.058C71.8315 31.862 71.9761 31.6007 72.0975 31.274L72.5455 30.042L69.8295 23.448H71.1035L73.1335 28.586H73.1615L75.1075 23.448H76.2975L73.1335 31.498ZM81.5718 20.088H83.0558L88.7958 28.32H88.8238V20.088H89.9998V30H88.5158L82.7758 21.768H82.7478V30H81.5718V20.088ZM92.1883 24.288C92.5243 23.9427 92.921 23.6907 93.3783 23.532C93.845 23.364 94.3163 23.28 94.7923 23.28C95.763 23.28 96.463 23.5087 96.8923 23.966C97.3217 24.4233 97.5363 25.1187 97.5363 26.052V28.866C97.5363 29.0527 97.5457 29.2487 97.5643 29.454C97.583 29.65 97.6063 29.832 97.6343 30H96.5843C96.547 29.8507 96.5237 29.6873 96.5143 29.51C96.5143 29.3233 96.5143 29.16 96.5143 29.02H96.4863C96.2717 29.356 95.9823 29.6313 95.6183 29.846C95.2637 30.0607 94.8343 30.168 94.3303 30.168C93.9943 30.168 93.677 30.126 93.3783 30.042C93.089 29.958 92.8323 29.8367 92.6083 29.678C92.3937 29.51 92.221 29.3047 92.0903 29.062C91.9597 28.8193 91.8943 28.5393 91.8943 28.222C91.8943 27.6807 92.0343 27.256 92.3143 26.948C92.5943 26.64 92.9397 26.4113 93.3503 26.262C93.7703 26.1127 94.2183 26.0193 94.6943 25.982C95.1797 25.9447 95.623 25.926 96.0243 25.926H96.4443V25.73C96.4443 25.254 96.2997 24.8947 96.0103 24.652C95.7303 24.4093 95.3337 24.288 94.8203 24.288C94.4657 24.288 94.1157 24.3487 93.7703 24.47C93.4343 24.582 93.1357 24.7593 92.8743 25.002L92.1883 24.288ZM95.3523 26.85C94.6523 26.85 94.097 26.948 93.6863 27.144C93.2757 27.34 93.0703 27.662 93.0703 28.11C93.0703 28.5207 93.2057 28.8147 93.4763 28.992C93.7563 29.16 94.1017 29.244 94.5123 29.244C94.8297 29.244 95.105 29.1927 95.3383 29.09C95.581 28.978 95.7817 28.8333 95.9403 28.656C96.099 28.4787 96.2203 28.2733 96.3043 28.04C96.3883 27.7973 96.435 27.5407 96.4443 27.27V26.85H95.3523ZM99.5321 25.002C99.5321 24.7033 99.5228 24.4233 99.5041 24.162C99.4854 23.9007 99.4761 23.6627 99.4761 23.448H100.512C100.512 23.6253 100.517 23.8027 100.526 23.98C100.535 24.1573 100.54 24.3393 100.54 24.526H100.568C100.643 24.3673 100.745 24.2133 100.876 24.064C101.016 23.9147 101.179 23.784 101.366 23.672C101.553 23.5507 101.763 23.4573 101.996 23.392C102.229 23.3173 102.481 23.28 102.752 23.28C103.107 23.28 103.401 23.3267 103.634 23.42C103.877 23.504 104.077 23.6113 104.236 23.742C104.395 23.8633 104.516 23.9987 104.6 24.148C104.693 24.288 104.768 24.414 104.824 24.526C105.067 24.134 105.347 23.8307 105.664 23.616C105.981 23.392 106.392 23.28 106.896 23.28C107.363 23.28 107.755 23.3453 108.072 23.476C108.389 23.5973 108.646 23.7793 108.842 24.022C109.038 24.2553 109.178 24.5447 109.262 24.89C109.346 25.226 109.388 25.604 109.388 26.024V30H108.296V26.08C108.296 25.856 108.273 25.6367 108.226 25.422C108.179 25.2073 108.095 25.016 107.974 24.848C107.853 24.68 107.689 24.5447 107.484 24.442C107.279 24.3393 107.017 24.288 106.7 24.288C106.467 24.288 106.247 24.3347 106.042 24.428C105.837 24.5213 105.655 24.652 105.496 24.82C105.347 24.988 105.225 25.1933 105.132 25.436C105.048 25.6693 105.006 25.9307 105.006 26.22V30H103.914V26.29C103.914 25.562 103.816 25.0487 103.62 24.75C103.424 24.442 103.102 24.288 102.654 24.288C102.299 24.288 101.991 24.3487 101.73 24.47C101.478 24.5913 101.268 24.764 101.1 24.988C100.941 25.212 100.82 25.478 100.736 25.786C100.661 26.094 100.624 26.4347 100.624 26.808V30H99.5321V25.002ZM117.306 28.81C116.914 29.314 116.485 29.6687 116.018 29.874C115.551 30.07 115.01 30.168 114.394 30.168C113.881 30.168 113.419 30.0793 113.008 29.902C112.597 29.7153 112.247 29.468 111.958 29.16C111.678 28.852 111.459 28.488 111.3 28.068C111.151 27.648 111.076 27.2 111.076 26.724C111.076 26.22 111.16 25.758 111.328 25.338C111.496 24.9087 111.729 24.5447 112.028 24.246C112.327 23.938 112.681 23.7 113.092 23.532C113.503 23.364 113.951 23.28 114.436 23.28C114.893 23.28 115.313 23.3593 115.696 23.518C116.079 23.6673 116.405 23.8913 116.676 24.19C116.956 24.4793 117.171 24.8387 117.32 25.268C117.469 25.688 117.544 26.1687 117.544 26.71V27.06H112.252C112.271 27.34 112.336 27.6107 112.448 27.872C112.569 28.124 112.723 28.348 112.91 28.544C113.097 28.7307 113.316 28.88 113.568 28.992C113.82 29.104 114.095 29.16 114.394 29.16C114.87 29.16 115.271 29.076 115.598 28.908C115.925 28.74 116.219 28.4927 116.48 28.166L117.306 28.81ZM116.368 26.136C116.349 25.576 116.167 25.128 115.822 24.792C115.477 24.456 115.001 24.288 114.394 24.288C113.787 24.288 113.297 24.456 112.924 24.792C112.551 25.128 112.327 25.576 112.252 26.136H116.368ZM121.725 22.174L123.713 21.502L123.979 22.314L122.005 22.986L123.251 24.652L122.565 25.184L121.305 23.462L120.087 25.184L119.387 24.652L120.605 22.986L118.631 22.314L118.897 21.502L120.885 22.174V20.088H121.725V22.174Z" fill="#A5B1C2"/>
</svg>
